<?xml version="1.0" encoding="UTF-8"?>
<svg id="Layer_1" xmlns="http://www.w3.org/2000/svg" version="1.1" viewBox="0 0 500 500">
  <!-- Generator: Adobe Illustrator 29.8.1, SVG Export Plug-In . SVG Version: 2.1.1 Build 2)  -->
  <defs>
    <style>
      .st0 {
        fill: #195362;
      }
    </style>
  </defs>
  <path class="st0" d="M417.9996033,27.9998779c-16.5681152,0-29.9996948,13.4316406-29.9996948,29.9997559h0v24.0002441c0,16.5690308,13.4315796,29.9997559,29.9996948,29.9997559h24.0003052c16.5690002,0,29.9996948-13.4307251,29.9996948-29.9997559h0v-24.0002441c0-16.5681152-13.4306946-29.9997559-29.9996948-29.9997559h-24.0003052ZM399.9996033,81.9998779v-24.0002441c0-9.9405518,8.0594788-18,18-18h24.0003052c9.9413757,0,18,8.0594482,18,18h0v24.0002441c0,9.9414062-8.0586243,18-18,18h-24.0003052c-9.9405212,0-18-8.0585938-18-18ZM363.9996033,27.9998779v11.9997559h12.0005798v-11.9997559h-12.0005798ZM351.9999084,27.9998779v11.9997559h11.9996948v-11.9997559h-11.9996948ZM340.0001831,27.9998779v11.9997559h11.9997253v-11.9997559h-11.9997253ZM327.9996033,27.9998779v11.9997559h12.0005798v-11.9997559h-12.0005798ZM304.0001831,27.9998779v11.9997559h11.9996948v-11.9997559h-11.9996948ZM279.9998779,27.9998779v11.9997559h11.9997253v-11.9997559h-11.9997253ZM268.0001831,27.9998779v24.0003662h11.9996948v-24.0003662h-11.9996948ZM243.9998932,27.9998779v24.0003662h11.9997101v-24.0003662h-11.9997101ZM219.9996033,27.9998779v11.9997559h12.0005951v-11.9997559h-12.0005951ZM183.9996033,27.9998779v36h12.0005951V27.9998779h-12.0005951ZM57.9995995,27.9998779c-16.5681,0-29.9997005,13.4316406-29.9997005,29.9997559h0v24.0002441c0,16.5690308,13.4316006,29.9997559,29.9997005,29.9997559h24.0003014c16.5690002,0,29.9996948-13.4307251,29.9996948-29.9997559h0v-24.0002441c0-16.5681152-13.4306946-29.9997559-29.9996948-29.9997559h-24.0003014ZM39.9995995,81.9998779v-24.0002441c0-9.9405518,8.0595016-18,18-18h24.0003014c9.9413986,0,18,8.0594482,18,18h0v24.0002441c0,9.9414062-8.0586014,18-18,18h-24.0003014c-9.9404984,0-18-8.0585938-18-18ZM315.9998779,39.9996338v36h11.9997253v-36h-11.9997253ZM291.9996033,39.9996338v12.0006104h12.0005798v-12.0006104h-12.0005798ZM255.9996033,39.9996338v12.0006104h12.0005798v-12.0006104h-12.0005798ZM232.0001984,39.9996338v36h11.9996948v-36h-11.9996948ZM196.0001984,39.9996338v12.0006104h11.9996948v-12.0006104h-11.9996948ZM171.9998932,39.9996338v12.0006104h11.9997101v-12.0006104h-11.9997101ZM160.0001984,39.9996338v24.0002441h11.9996948v-24.0002441h-11.9996948ZM147.9996033,39.9996338v12.0006104h12.0005951v-12.0006104h-12.0005951ZM124.0001984,39.9996338v84.0005493h11.9996948V39.9996338h-11.9996948ZM412.0001831,52.0002441v35.999939h36v-35.999939h-36ZM363.9996033,52.0002441v11.9996338h12.0005798v-11.9996338h-12.0005798ZM351.9999084,52.0002441v11.9996338h11.9996948v-11.9996338h-11.9996948ZM327.9996033,52.0002441v11.9996338h12.0005798v-11.9996338h-12.0005798ZM279.9998779,52.0002441v47.9996338h11.9997253v-47.9996338h-11.9997253ZM219.9996033,52.0002441v11.9996338h12.0005951v-11.9996338h-12.0005951ZM207.9998932,52.0002441v47.9996338h11.9997101v-47.9996338h-11.9997101ZM52.0001984,52.0002441v35.999939h36v-35.999939h-36ZM340.0001831,63.9998779v11.9997559h11.9997253v-11.9997559h-11.9997253ZM291.9996033,63.9998779v47.9997559h12.0005798v-47.9997559h-12.0005798ZM268.0001831,63.9998779v11.9997559h11.9996948v-11.9997559h-11.9996948ZM171.9998932,63.9998779v24.0003052h11.9997101v-24.0003052h-11.9997101ZM363.9996033,75.9996338v12.0005493h12.0005798v-12.0005493h-12.0005798ZM351.9999084,75.9996338v24.0002441h11.9996948v-24.0002441h-11.9996948ZM327.9996033,75.9996338v12.0005493h12.0005798v-12.0005493h-12.0005798ZM255.9996033,75.9996338v24.0002441h12.0005798v-24.0002441h-12.0005798ZM219.9996033,75.9996338v48.0005493h12.0005951v-48.0005493h-12.0005951ZM196.0001984,75.9996338v12.0005493h11.9996948v-12.0005493h-11.9996948ZM147.9996033,75.9996338v60.0002441h12.0005951v-60.0002441h-12.0005951ZM315.9998779,88.0001831v36h11.9997253v-36h-11.9997253ZM304.0001831,88.0001831v11.9996948h11.9996948v-11.9996948h-11.9996948ZM268.0001831,88.0001831v36h11.9996948v-36h-11.9996948ZM243.9998932,88.0001831v36h11.9997101v-36h-11.9997101ZM183.9996033,88.0001831v11.9996948h12.0005951v-11.9996948h-12.0005951ZM160.0001984,88.0001831v11.9996948h11.9996948v-11.9996948h-11.9996948ZM363.9996033,99.9998779v96.0003052h12.0005798v-96.0003052h-12.0005798ZM340.0001831,99.9998779v11.9997559h11.9997253v-11.9997559h-11.9997253ZM196.0001984,99.9998779v11.9997559h11.9996948v-11.9997559h-11.9996948ZM171.9998932,99.9998779v24.0003052h11.9997101v-24.0003052h-11.9997101ZM351.9999084,111.9996338v24.0002441h11.9996948v-24.0002441h-11.9996948ZM304.0001831,111.9996338v12.0005493h11.9996948v-12.0005493h-11.9996948ZM279.9998779,111.9996338v12.0005493h11.9997253v-12.0005493h-11.9997253ZM135.9998932,111.9996338v48.0005493h11.9997101v-48.0005493h-11.9997101ZM448.0001831,124.0001831v23.9994507h11.9997253v-23.9994507h-11.9997253ZM435.9996033,124.0001831v23.9994507h12.0005798v-23.9994507h-12.0005798ZM423.9999084,124.0001831v36h11.9996948v-36h-11.9996948ZM412.0001831,124.0001831v23.9994507h11.9997253v-23.9994507h-11.9997253ZM399.9996033,124.0001831v11.9996948h12.0005798v-11.9996948h-12.0005798ZM387.9999084,124.0001831v23.9994507h11.9996948v-23.9994507h-11.9996948ZM376.0001831,124.0001831v36h11.9997253v-36h-11.9997253ZM340.0001831,124.0001831v23.9994507h11.9997253v-23.9994507h-11.9997253ZM291.9996033,124.0001831v11.9996948h12.0005798v-11.9996948h-12.0005798ZM255.9996033,124.0001831v11.9996948h12.0005798v-11.9996948h-12.0005798ZM232.0001984,124.0001831v47.9996948h11.9996948v-47.9996948h-11.9996948ZM207.9998932,124.0001831v23.9994507h11.9997101v-23.9994507h-11.9997101ZM196.0001984,124.0001831v36h11.9996948v-36h-11.9996948ZM160.0001984,124.0001831v11.9996948h11.9996948v-11.9996948h-11.9996948ZM99.9999008,124.0001831v11.9996948h11.9996948v-11.9996948h-11.9996948ZM88.0001984,124.0001831v11.9996948h11.9997025v-11.9996948h-11.9997025ZM75.9995956,124.0001831v11.9996948h12.0006027v-11.9996948h-12.0006027ZM27.9998989,124.0001831v59.9994507h11.9997005v-59.9994507h-11.9997005ZM459.9999084,135.9998779v11.9997559h11.9996948v-11.9997559h-11.9996948ZM315.9998779,135.9998779v11.9997559h11.9997253v-11.9997559h-11.9997253ZM219.9996033,135.9998779v11.9997559h12.0005951v-11.9997559h-12.0005951ZM124.0001984,135.9998779v47.9997559h11.9996948v-47.9997559h-11.9996948ZM63.9999008,135.9998779v24.0003052h11.9996948v-24.0003052h-11.9996948ZM52.0001984,135.9998779v11.9997559h11.9997025v-11.9997559h-11.9997025ZM39.9995995,135.9998779v11.9997559h12.0005989v-11.9997559h-12.0005989ZM399.9996033,147.9996338v12.0005493h12.0005798v-12.0005493h-12.0005798ZM351.9999084,147.9996338v12.0005493h11.9996948v-12.0005493h-11.9996948ZM291.9996033,147.9996338v12.0005493h12.0005798v-12.0005493h-12.0005798ZM279.9998779,147.9996338v24.0002441h11.9997253v-24.0002441h-11.9997253ZM171.9998932,147.9996338v12.0005493h11.9997101v-12.0005493h-11.9997101ZM160.0001984,147.9996338v12.0005493h11.9996948v-12.0005493h-11.9996948ZM111.9995956,147.9996338v24.0002441h12.0006027v-24.0002441h-12.0006027ZM99.9999008,147.9996338v12.0005493h11.9996948v-12.0005493h-11.9996948ZM75.9995956,147.9996338v24.0002441h12.0006027v-24.0002441h-12.0006027ZM412.0001831,160.0001831v11.9996948h11.9997253v-11.9996948h-11.9997253ZM387.9999084,160.0001831v23.9994507h11.9996948v-23.9994507h-11.9996948ZM243.9998932,160.0001831v23.9994507h11.9997101v-23.9994507h-11.9997101ZM219.9996033,160.0001831v23.9994507h12.0005951v-23.9994507h-12.0005951ZM207.9998932,160.0001831v11.9996948h11.9997101v-11.9996948h-11.9997101ZM88.0001984,160.0001831v11.9996948h11.9997025v-11.9996948h-11.9997025ZM39.9995995,160.0001831v11.9996948h12.0005989v-11.9996948h-12.0005989ZM435.9996033,171.9998779v24.0003052h12.0005798v-24.0003052h-12.0005798ZM376.0001831,171.9998779v11.9997559h11.9997253v-11.9997559h-11.9997253ZM351.9999084,171.9998779v24.0003052h11.9996948v-24.0003052h-11.9996948ZM315.9998779,171.9998779v47.9997559h11.9997253v-47.9997559h-11.9997253ZM291.9996033,171.9998779v36.000061h12.0005798v-36.000061h-12.0005798ZM255.9996033,171.9998779v47.9997559h12.0005798v-47.9997559h-12.0005798ZM183.9996033,171.9998779v11.9997559h12.0005951v-11.9997559h-12.0005951ZM171.9998932,171.9998779v11.9997559h11.9997101v-11.9997559h-11.9997101ZM160.0001984,171.9998779v11.9997559h11.9996948v-11.9997559h-11.9996948ZM135.9998932,171.9998779v11.9997559h11.9997101v-11.9997559h-11.9997101ZM99.9999008,171.9998779v11.9997559h11.9996948v-11.9997559h-11.9996948ZM63.9999008,171.9998779v11.9997559h11.9996948v-11.9997559h-11.9996948ZM52.0001984,171.9998779v36.000061h11.9997025v-36.000061h-11.9997025ZM423.9999084,183.9996338v36h11.9996948v-36h-11.9996948ZM304.0001831,183.9996338v12.0005493h11.9996948v-12.0005493h-11.9996948ZM268.0001831,183.9996338v24.0003052h11.9996948v-24.0003052h-11.9996948ZM111.9995956,183.9996338v24.0003052h12.0006027v-24.0003052h-12.0006027ZM75.9995956,183.9996338v24.0003052h12.0006027v-24.0003052h-12.0006027ZM39.9995995,183.9996338v12.0005493h12.0005989v-12.0005493h-12.0005989ZM459.9999084,196.0001831v23.9994507h11.9996948v-23.9994507h-11.9996948ZM448.0001831,196.0001831v95.9994507h11.9997253v-95.9994507h-11.9997253ZM412.0001831,196.0001831v11.9997559h11.9997253v-11.9997559h-11.9997253ZM387.9999084,196.0001831v11.9997559h11.9996948v-11.9997559h-11.9996948ZM376.0001831,196.0001831v23.9994507h11.9997253v-23.9994507h-11.9997253ZM340.0001831,196.0001831v23.9994507h11.9997253v-23.9994507h-11.9997253ZM219.9996033,196.0001831v36h12.0005951v-36h-12.0005951ZM183.9996033,196.0001831v11.9997559h12.0005951v-11.9997559h-12.0005951ZM171.9998932,196.0001831v23.9994507h11.9997101v-23.9994507h-11.9997101ZM99.9999008,196.0001831v11.9997559h11.9996948v-11.9997559h-11.9996948ZM399.9996033,207.999939v24.0002441h12.0005798v-24.0002441h-12.0005798ZM351.9999084,207.999939v11.9996948h11.9996948v-11.9996948h-11.9996948ZM327.9996033,207.999939v24.0002441h12.0005798v-24.0002441h-12.0005798ZM232.0001984,207.999939v11.9996948h11.9996948v-11.9996948h-11.9996948ZM207.9998932,207.999939v36h11.9997101v-36h-11.9997101ZM88.0001984,207.999939v36h11.9997025v-36h-11.9997025ZM63.9999008,207.999939v11.9996948h11.9996948v-11.9996948h-11.9996948ZM387.9999084,219.9996338v12.0005493h11.9996948v-12.0005493h-11.9996948ZM304.0001831,219.9996338v36h11.9996948v-36h-11.9996948ZM279.9998779,219.9996338v12.0005493h11.9997253v-12.0005493h-11.9997253ZM243.9998932,219.9996338v12.0005493h11.9997101v-12.0005493h-11.9997101ZM160.0001984,219.9996338v12.0005493h11.9996948v-12.0005493h-11.9996948ZM135.9998932,219.9996338v12.0005493h11.9997101v-12.0005493h-11.9997101ZM111.9995956,219.9996338v12.0005493h12.0006027v-12.0005493h-12.0006027ZM99.9999008,219.9996338v12.0005493h11.9996948v-12.0005493h-11.9996948ZM52.0001984,219.9996338v12.0005493h11.9997025v-12.0005493h-11.9997025ZM39.9995995,219.9996338v24.0003052h12.0005989v-24.0003052h-12.0005989ZM412.0001831,232.0001831v11.9997559h11.9997253v-11.9997559h-11.9997253ZM363.9996033,232.0001831v11.9997559h12.0005798v-11.9997559h-12.0005798ZM351.9999084,232.0001831v11.9997559h11.9996948v-11.9997559h-11.9996948ZM268.0001831,232.0001831v23.9994507h11.9996948v-23.9994507h-11.9996948ZM255.9996033,232.0001831v23.9994507h12.0005798v-23.9994507h-12.0005798ZM232.0001984,232.0001831v23.9994507h11.9996948v-23.9994507h-11.9996948ZM196.0001984,232.0001831v11.9997559h11.9996948v-11.9997559h-11.9996948ZM183.9996033,232.0001831v11.9997559h12.0005951v-11.9997559h-12.0005951ZM171.9998932,232.0001831v11.9997559h11.9997101v-11.9997559h-11.9997101ZM63.9999008,232.0001831v23.9994507h11.9996948v-23.9994507h-11.9996948ZM423.9999084,243.999939v11.9996948h11.9996948v-11.9996948h-11.9996948ZM399.9996033,243.999939v60.0002441h12.0005798v-60.0002441h-12.0005798ZM376.0001831,243.999939v24.0002441h11.9997253v-24.0002441h-11.9997253ZM291.9996033,243.999939v36h12.0005798v-36h-12.0005798ZM243.9998932,243.999939v47.9996948h11.9997101v-47.9996948h-11.9997101ZM147.9996033,243.999939v11.9996948h12.0005951v-11.9996948h-12.0005951ZM124.0001984,243.999939v24.0002441h11.9996948v-24.0002441h-11.9996948ZM111.9995956,243.999939v11.9996948h12.0006027v-11.9996948h-12.0006027ZM99.9999008,243.999939v11.9996948h11.9996948v-11.9996948h-11.9996948ZM52.0001984,243.999939v11.9996948h11.9997025v-11.9996948h-11.9997025ZM27.9998989,243.999939v11.9996948h11.9997005v-11.9996948h-11.9997005ZM459.9999084,255.9996338v12.0005493h11.9996948v-12.0005493h-11.9996948ZM435.9996033,255.9996338v12.0005493h12.0005798v-12.0005493h-12.0005798ZM412.0001831,255.9996338v12.0005493h11.9997253v-12.0005493h-11.9997253ZM351.9999084,255.9996338v72h11.9996948v-72h-11.9996948ZM279.9998779,255.9996338v12.0005493h11.9997253v-12.0005493h-11.9997253ZM207.9998932,255.9996338v24.0003052h11.9997101v-24.0003052h-11.9997101ZM171.9998932,255.9996338v12.0005493h11.9997101v-12.0005493h-11.9997101ZM160.0001984,255.9996338v60.0003052h11.9996948v-60.0003052h-11.9996948ZM88.0001984,255.9996338v12.0005493h11.9997025v-12.0005493h-11.9997025ZM39.9995995,255.9996338v48.0005493h12.0005989v-48.0005493h-12.0005989ZM423.9999084,268.0001831v11.9997559h11.9996948v-11.9997559h-11.9996948ZM387.9999084,268.0001831v23.9994507h11.9996948v-23.9994507h-11.9996948ZM363.9996033,268.0001831v11.9997559h12.0005798v-11.9997559h-12.0005798ZM340.0001831,268.0001831v11.9997559h11.9997253v-11.9997559h-11.9997253ZM315.9998779,268.0001831v11.9997559h11.9997253v-11.9997559h-11.9997253ZM304.0001831,268.0001831v23.9994507h11.9996948v-23.9994507h-11.9996948ZM268.0001831,268.0001831v11.9997559h11.9996948v-11.9997559h-11.9996948ZM255.9996033,268.0001831v23.9994507h12.0005798v-23.9994507h-12.0005798ZM232.0001984,268.0001831v11.9997559h11.9996948v-11.9997559h-11.9996948ZM135.9998932,268.0001831v11.9997559h11.9997101v-11.9997559h-11.9997101ZM111.9995956,268.0001831v36h12.0006027v-36h-12.0006027ZM99.9999008,268.0001831v11.9997559h11.9996948v-11.9997559h-11.9996948ZM63.9999008,268.0001831v11.9997559h11.9996948v-11.9997559h-11.9996948ZM52.0001984,268.0001831v36h11.9997025v-36h-11.9997025ZM412.0001831,279.999939v11.9996948h11.9997253v-11.9996948h-11.9997253ZM376.0001831,279.999939v11.9996948h11.9997253v-11.9996948h-11.9997253ZM279.9998779,279.999939v11.9996948h11.9997253v-11.9996948h-11.9997253ZM219.9996033,279.999939v83.9996948h12.0005951v-83.9996948h-12.0005951ZM147.9996033,279.999939v11.9996948h12.0005951v-11.9996948h-12.0005951ZM27.9998989,279.999939v24.0002441h11.9997005v-24.0002441h-11.9997005ZM435.9996033,291.9996338v12.0005493h12.0005798v-12.0005493h-12.0005798ZM423.9999084,291.9996338v12.0005493h11.9996948v-12.0005493h-11.9996948ZM363.9996033,291.9996338v12.0005493h12.0005798v-12.0005493h-12.0005798ZM340.0001831,291.9996338v12.0005493h11.9997253v-12.0005493h-11.9997253ZM315.9998779,291.9996338v12.0005493h11.9997253v-12.0005493h-11.9997253ZM196.0001984,291.9996338v12.0005493h11.9996948v-12.0005493h-11.9996948ZM171.9998932,291.9996338v12.0005493h11.9997101v-12.0005493h-11.9997101ZM135.9998932,291.9996338v24.0003052h11.9997101v-24.0003052h-11.9997101ZM124.0001984,291.9996338v12.0005493h11.9996948v-12.0005493h-11.9996948ZM99.9999008,291.9996338v12.0005493h11.9996948v-12.0005493h-11.9996948ZM88.0001984,291.9996338v12.0005493h11.9997025v-12.0005493h-11.9997025ZM75.9995956,291.9996338v24.0003052h12.0006027v-24.0003052h-12.0006027ZM63.9999008,291.9996338v12.0005493h11.9996948v-12.0005493h-11.9996948ZM459.9999084,304.0001831v47.9997559h11.9996948v-47.9997559h-11.9996948ZM448.0001831,304.0001831v11.9997559h11.9997253v-11.9997559h-11.9997253ZM412.0001831,304.0001831v119.9997559h11.9997253v-119.9997559h-11.9997253ZM376.0001831,304.0001831v11.9997559h11.9997253v-11.9997559h-11.9997253ZM327.9996033,304.0001831v11.9997559h12.0005798v-11.9997559h-12.0005798ZM279.9998779,304.0001831v11.9997559h11.9997253v-11.9997559h-11.9997253ZM268.0001831,304.0001831v11.9997559h11.9996948v-11.9997559h-11.9996948ZM255.9996033,304.0001831v11.9997559h12.0005798v-11.9997559h-12.0005798ZM243.9998932,304.0001831v23.9994507h11.9997101v-23.9994507h-11.9997101ZM207.9998932,304.0001831v11.9997559h11.9997101v-11.9997559h-11.9997101ZM183.9996033,304.0001831v11.9997559h12.0005951v-11.9997559h-12.0005951ZM423.9999084,315.999939v11.9996948h11.9996948v-11.9996948h-11.9996948ZM399.9996033,315.999939v11.9996948h12.0005798v-11.9996948h-12.0005798ZM363.9996033,315.999939v108h12.0005798v-108h-12.0005798ZM340.0001831,315.999939v11.9996948h11.9997253v-11.9996948h-11.9997253ZM315.9998779,315.999939v24.0002441h11.9997253v-24.0002441h-11.9997253ZM304.0001831,315.999939v11.9996948h11.9996948v-11.9996948h-11.9996948ZM196.0001984,315.999939v11.9996948h11.9996948v-11.9996948h-11.9996948ZM147.9996033,315.999939v47.9996948h12.0005951v-47.9996948h-12.0005951ZM124.0001984,315.999939v36h11.9996948v-36h-11.9996948ZM99.9999008,315.999939v11.9996948h11.9996948v-11.9996948h-11.9996948ZM88.0001984,315.999939v11.9996948h11.9997025v-11.9996948h-11.9997025ZM63.9999008,315.999939v36h11.9996948v-36h-11.9996948ZM52.0001984,315.999939v11.9996948h11.9997025v-11.9996948h-11.9997025ZM27.9998989,315.999939v11.9996948h11.9997005v-11.9996948h-11.9997005ZM327.9996033,327.9996338v12.0005493h12.0005798v-12.0005493h-12.0005798ZM291.9996033,327.9996338v36h12.0005798v-36h-12.0005798ZM279.9998779,327.9996338v24.0003052h11.9997253v-24.0003052h-11.9997253ZM268.0001831,327.9996338v24.0003052h11.9996948v-24.0003052h-11.9996948ZM232.0001984,327.9996338v12.0005493h11.9996948v-12.0005493h-11.9996948ZM171.9998932,327.9996338v24.0003052h11.9997101v-24.0003052h-11.9997101ZM135.9998932,327.9996338v12.0005493h11.9997101v-12.0005493h-11.9997101ZM75.9995956,327.9996338v12.0005493h12.0006027v-12.0005493h-12.0006027ZM448.0001831,340.0001831v36h11.9997253v-36h-11.9997253ZM435.9996033,340.0001831v11.9997559h12.0005798v-11.9997559h-12.0005798ZM423.9999084,340.0001831v11.9997559h11.9996948v-11.9997559h-11.9996948ZM399.9996033,340.0001831v11.9997559h12.0005798v-11.9997559h-12.0005798ZM387.9999084,340.0001831v11.9997559h11.9996948v-11.9997559h-11.9996948ZM340.0001831,340.0001831v23.9994507h11.9997253v-23.9994507h-11.9997253ZM304.0001831,340.0001831v11.9997559h11.9996948v-11.9997559h-11.9996948ZM243.9998932,340.0001831v47.9997559h11.9997101v-47.9997559h-11.9997101ZM160.0001984,340.0001831v11.9997559h11.9996948v-11.9997559h-11.9996948ZM111.9995956,340.0001831v11.9997559h12.0006027v-11.9997559h-12.0006027ZM99.9999008,340.0001831v11.9997559h11.9996948v-11.9997559h-11.9996948ZM52.0001984,340.0001831v36h11.9997025v-36h-11.9997025ZM27.9998989,340.0001831v11.9997559h11.9997005v-11.9997559h-11.9997005ZM196.0001984,351.999939v11.9996948h11.9996948v-11.9996948h-11.9996948ZM88.0001984,351.999939v24.0002441h11.9997025v-24.0002441h-11.9997025ZM39.9995995,351.999939v24.0002441h12.0005989v-24.0002441h-12.0005989ZM399.9996033,363.9996338v12.0005493h12.0005798v-12.0005493h-12.0005798ZM387.9999084,363.9996338v12.0005493h11.9996948v-12.0005493h-11.9996948ZM376.0001831,363.9996338v12.0005493h11.9997253v-12.0005493h-11.9997253ZM207.9998932,363.9996338v24.0003052h11.9997101v-24.0003052h-11.9997101ZM183.9996033,363.9996338v24.0003052h12.0005951v-24.0003052h-12.0005951ZM160.0001984,363.9996338v12.0005493h11.9996948v-12.0005493h-11.9996948ZM135.9998932,363.9996338v24.0003052h11.9997101v-24.0003052h-11.9997101ZM111.9995956,363.9996338v12.0005493h12.0006027v-12.0005493h-12.0006027ZM99.9999008,363.9996338v12.0005493h11.9996948v-12.0005493h-11.9996948ZM27.9998989,363.9996338v12.0005493h11.9997005v-12.0005493h-11.9997005ZM435.9996033,376.0001831v11.9997559h12.0005798v-11.9997559h-12.0005798ZM351.9999084,376.0001831v11.9997559h11.9996948v-11.9997559h-11.9996948ZM315.9998779,376.0001831v23.9994507h11.9997253v-23.9994507h-11.9997253ZM304.0001831,376.0001831v36.000061h11.9996948v-36.000061h-11.9996948ZM291.9996033,376.0001831v23.9994507h12.0005798v-23.9994507h-12.0005798ZM268.0001831,376.0001831v47.9997559h11.9996948v-47.9997559h-11.9996948ZM255.9996033,376.0001831v36.000061h12.0005798v-36.000061h-12.0005798ZM232.0001984,376.0001831v11.9997559h11.9996948v-11.9997559h-11.9996948ZM219.9996033,376.0001831v23.9994507h12.0005951v-23.9994507h-12.0005951ZM196.0001984,376.0001831v11.9997559h11.9996948v-11.9997559h-11.9996948ZM171.9998932,376.0001831v23.9994507h11.9997101v-23.9994507h-11.9997101ZM448.0001831,387.999939v36h11.9997253v-36h-11.9997253ZM423.9999084,387.999939v11.9996948h11.9996948v-11.9996948h-11.9996948ZM387.9999084,387.999939v11.9996948h11.9996948v-11.9996948h-11.9996948ZM340.0001831,387.999939v11.9996948h11.9997253v-11.9996948h-11.9997253ZM160.0001984,387.999939v11.9996948h11.9996948v-11.9996948h-11.9996948ZM147.9996033,387.999939v11.9996948h12.0005951v-11.9996948h-12.0005951ZM57.9995995,387.999939c-16.5681,0-29.9997005,13.4315796-29.9997005,29.9996948h0v24.0003052c0,16.5689697,13.4316006,29.9996948,29.9997005,29.9996948h24.0003014c16.5690002,0,29.9996948-13.4307251,29.9996948-29.9996948h0v-24.0003052c0-16.5681152-13.4306946-29.9996948-29.9996948-29.9996948h-24.0003014ZM39.9995995,441.999939v-24.0003052c0-9.9404907,8.0595016-18,18-18h24.0003014c9.9413986,0,18,8.0595093,18,18h0v24.0003052c0,9.9414062-8.0586014,18-18,18h-24.0003014c-9.9404984,0-18-8.0585938-18-18ZM435.9996033,399.9996338v12.0006104h12.0005798v-12.0006104h-12.0005798ZM351.9999084,399.9996338v12.0006104h11.9996948v-12.0006104h-11.9996948ZM327.9996033,399.9996338v12.0006104h12.0005798v-12.0006104h-12.0005798ZM279.9998779,399.9996338v12.0006104h11.9997253v-12.0006104h-11.9997253ZM243.9998932,399.9996338v24.0003052h11.9997101v-24.0003052h-11.9997101ZM232.0001984,399.9996338v12.0006104h11.9996948v-12.0006104h-11.9996948ZM207.9998932,399.9996338v12.0006104h11.9997101v-12.0006104h-11.9997101ZM196.0001984,399.9996338v12.0006104h11.9996948v-12.0006104h-11.9996948ZM135.9998932,399.9996338v12.0006104h11.9997101v-12.0006104h-11.9997101ZM124.0001984,399.9996338v24.0003052h11.9996948v-24.0003052h-11.9996948ZM423.9999084,412.0002441v11.9996948h11.9996948v-11.9996948h-11.9996948ZM399.9996033,412.0002441v11.9996948h12.0005798v-11.9996948h-12.0005798ZM387.9999084,412.0002441v23.9993896h11.9996948v-23.9993896h-11.9996948ZM376.0001831,412.0002441v11.9996948h11.9997253v-11.9996948h-11.9997253ZM315.9998779,412.0002441v47.9996948h11.9997253v-47.9996948h-11.9997253ZM219.9996033,412.0002441v11.9996948h12.0005951v-11.9996948h-12.0005951ZM171.9998932,412.0002441v36h11.9997101v-36h-11.9997101ZM160.0001984,412.0002441v11.9996948h11.9996948v-11.9996948h-11.9996948ZM52.0001984,412.0002441v36h36v-36h-36ZM435.9996033,423.999939v11.9996948h12.0005798v-11.9996948h-12.0005798ZM327.9996033,423.999939v24.0003052h12.0005798v-24.0003052h-12.0005798ZM291.9996033,423.999939v47.9996948h12.0005798v-47.9996948h-12.0005798ZM196.0001984,423.999939v11.9996948h11.9996948v-11.9996948h-11.9996948ZM183.9996033,423.999939v24.0003052h12.0005951v-24.0003052h-12.0005951ZM459.9999084,435.9996338v36h11.9996948v-36h-11.9996948ZM412.0001831,435.9996338v24.0003052h11.9997253v-24.0003052h-11.9997253ZM363.9996033,435.9996338v24.0003052h12.0005798v-24.0003052h-12.0005798ZM279.9998779,435.9996338v12.0006104h11.9997253v-12.0006104h-11.9997253ZM268.0001831,435.9996338v36h11.9996948v-36h-11.9996948ZM219.9996033,435.9996338v24.0003052h12.0005951v-24.0003052h-12.0005951ZM147.9996033,435.9996338v36h12.0005951v-36h-12.0005951ZM423.9999084,448.0002441v11.9996948h11.9996948v-11.9996948h-11.9996948ZM399.9996033,448.0002441v23.9993896h12.0005798v-23.9993896h-12.0005798ZM387.9999084,448.0002441v23.9993896h11.9996948v-23.9993896h-11.9996948ZM351.9999084,448.0002441v23.9993896h11.9996948v-23.9993896h-11.9996948ZM340.0001831,448.0002441v23.9993896h11.9997253v-23.9993896h-11.9997253ZM255.9996033,448.0002441v11.9996948h12.0005798v-11.9996948h-12.0005798ZM243.9998932,448.0002441v23.9993896h11.9997101v-23.9993896h-11.9997101ZM196.0001984,448.0002441v23.9993896h11.9996948v-23.9993896h-11.9996948ZM160.0001984,448.0002441v23.9993896h11.9996948v-23.9993896h-11.9996948ZM448.0001831,459.999939v11.9996948h11.9997253v-11.9996948h-11.9997253ZM435.9996033,459.999939v11.9996948h12.0005798v-11.9996948h-12.0005798ZM171.9998932,459.999939v11.9996948h11.9997101v-11.9996948h-11.9997101ZM124.0001984,459.999939v11.9996948h11.9996948v-11.9996948h-11.9996948Z"/>
</svg>