<?xml version="1.0" encoding="UTF-8"?>
<svg id="Layer_1" xmlns="http://www.w3.org/2000/svg" version="1.1" viewBox="0 0 500 500">
  <!-- Generator: Adobe Illustrator 29.8.1, SVG Export Plug-In . SVG Version: 2.1.1 Build 2)  -->
  <defs>
    <style>
      .st0 {
        fill: #195362;
      }

      .st1 {
        fill: #aadae6;
      }
    </style>
  </defs>
  <rect class="st0" y="0" width="500" height="500"/>
  <path class="st1" d="M418,28c-16.57,0-30,13.43-30,30h0v24c0,16.57,13.43,30,30,30h24c16.57,0,30-13.43,30-30h0v-24c0-16.57-13.43-30-30-30h-24ZM400,82v-24c0-9.94,8.06-18,18-18h24c9.94,0,18,8.06,18,18h0v24c0,9.94-8.06,18-18,18h-24c-9.94,0-18-8.06-18-18ZM364,28v12h12v-12h-12ZM352,28v12h12v-12h-12ZM340,28v12h12v-12h-12ZM328,28v12h12v-12h-12ZM304,28v12h12v-12h-12ZM280,28v12h12v-12h-12ZM268,28v24h12v-24h-12ZM244,28v24h12v-24h-12ZM220,28v12h12v-12h-12ZM184,28v36h12V28h-12ZM58,28c-16.57,0-30,13.43-30,30h0v24c0,16.57,13.43,30,30,30h24c16.57,0,30-13.43,30-30h0v-24c0-16.57-13.43-30-30-30h-24ZM40,82v-24c0-9.94,8.06-18,18-18h24c9.94,0,18,8.06,18,18h0v24c0,9.94-8.06,18-18,18h-24c-9.94,0-18-8.06-18-18ZM316,40v36h12v-36h-12ZM292,40v12h12v-12h-12ZM256,40v12h12v-12h-12ZM232,40v36h12v-36h-12ZM196,40v12h12v-12h-12ZM172,40v12h12v-12h-12ZM160,40v24h12v-24h-12ZM148,40v12h12v-12h-12ZM124,40v84h12V40h-12ZM412,52v36h36v-36h-36ZM364,52v12h12v-12h-12ZM352,52v12h12v-12h-12ZM328,52v12h12v-12h-12ZM280,52v48h12v-48h-12ZM220,52v12h12v-12h-12ZM208,52v48h12v-48h-12ZM52,52v36h36v-36h-36ZM340,64v12h12v-12h-12ZM292,64v48h12v-48h-12ZM268,64v12h12v-12h-12ZM172,64v24h12v-24h-12ZM364,76v12h12v-12h-12ZM352,76v24h12v-24h-12ZM328,76v12h12v-12h-12ZM256,76v24h12v-24h-12ZM220,76v48h12v-48h-12ZM196,76v12h12v-12h-12ZM148,76v60h12v-60h-12ZM316,88v36h12v-36h-12ZM304,88v12h12v-12h-12ZM268,88v36h12v-36h-12ZM244,88v36h12v-36h-12ZM184,88v12h12v-12h-12ZM160,88v12h12v-12h-12ZM364,100v96h12v-96h-12ZM340,100v12h12v-12h-12ZM196,100v12h12v-12h-12ZM172,100v24h12v-24h-12ZM352,112v24h12v-24h-12ZM304,112v12h12v-12h-12ZM280,112v12h12v-12h-12ZM136,112v48h12v-48h-12ZM448,124v24h12v-24h-12ZM436,124v24h12v-24h-12ZM424,124v36h12v-36h-12ZM412,124v24h12v-24h-12ZM400,124v12h12v-12h-12ZM388,124v24h12v-24h-12ZM376,124v36h12v-36h-12ZM340,124v24h12v-24h-12ZM292,124v12h12v-12h-12ZM256,124v12h12v-12h-12ZM232,124v48h12v-48h-12ZM208,124v24h12v-24h-12ZM196,124v36h12v-36h-12ZM160,124v12h12v-12h-12ZM100,124v12h12v-12h-12ZM88,124v12h12v-12h-12ZM76,124v12h12v-12h-12ZM28,124v60h12v-60h-12ZM460,136v12h12v-12h-12ZM316,136v12h12v-12h-12ZM220,136v12h12v-12h-12ZM124,136v48h12v-48h-12ZM64,136v24h12v-24h-12ZM52,136v12h12v-12h-12ZM40,136v12h12v-12h-12ZM400,148v12h12v-12h-12ZM352,148v12h12v-12h-12ZM292,148v12h12v-12h-12ZM280,148v24h12v-24h-12ZM172,148v12h12v-12h-12ZM160,148v12h12v-12h-12ZM112,148v24h12v-24h-12ZM100,148v12h12v-12h-12ZM76,148v24h12v-24h-12ZM412,160v12h12v-12h-12ZM388,160v24h12v-24h-12ZM244,160v24h12v-24h-12ZM220,160v24h12v-24h-12ZM208,160v12h12v-12h-12ZM88,160v12h12v-12h-12ZM40,160v12h12v-12h-12ZM436,172v24h12v-24h-12ZM376,172v12h12v-12h-12ZM352,172v24h12v-24h-12ZM316,172v48h12v-48h-12ZM292,172v36h12v-36h-12ZM256,172v48h12v-48h-12ZM184,172v12h12v-12h-12ZM172,172v12h12v-12h-12ZM160,172v12h12v-12h-12ZM136,172v12h12v-12h-12ZM100,172v12h12v-12h-12ZM64,172v12h12v-12h-12ZM52,172v36h12v-36h-12ZM424,184v36h12v-36h-12ZM304,184v12h12v-12h-12ZM268,184v24h12v-24h-12ZM112,184v24h12v-24h-12ZM76,184v24h12v-24h-12ZM40,184v12h12v-12h-12ZM460,196v24h12v-24h-12ZM448,196v96h12v-96h-12ZM412,196v12h12v-12h-12ZM388,196v12h12v-12h-12ZM376,196v24h12v-24h-12ZM340,196v24h12v-24h-12ZM220,196v36h12v-36h-12ZM184,196v12h12v-12h-12ZM172,196v24h12v-24h-12ZM100,196v12h12v-12h-12ZM400,208v24h12v-24h-12ZM352,208v12h12v-12h-12ZM328,208v24h12v-24h-12ZM232,208v12h12v-12h-12ZM208,208v36h12v-36h-12ZM88,208v36h12v-36h-12ZM64,208v12h12v-12h-12ZM388,220v12h12v-12h-12ZM304,220v36h12v-36h-12ZM280,220v12h12v-12h-12ZM244,220v12h12v-12h-12ZM160,220v12h12v-12h-12ZM136,220v12h12v-12h-12ZM112,220v12h12v-12h-12ZM100,220v12h12v-12h-12ZM52,220v12h12v-12h-12ZM40,220v24h12v-24h-12ZM412,232v12h12v-12h-12ZM364,232v12h12v-12h-12ZM352,232v12h12v-12h-12ZM268,232v24h12v-24h-12ZM256,232v24h12v-24h-12ZM232,232v24h12v-24h-12ZM196,232v12h12v-12h-12ZM184,232v12h12v-12h-12ZM172,232v12h12v-12h-12ZM64,232v24h12v-24h-12ZM424,244v12h12v-12h-12ZM400,244v60h12v-60h-12ZM376,244v24h12v-24h-12ZM292,244v36h12v-36h-12ZM244,244v48h12v-48h-12ZM148,244v12h12v-12h-12ZM124,244v24h12v-24h-12ZM112,244v12h12v-12h-12ZM100,244v12h12v-12h-12ZM52,244v12h12v-12h-12ZM28,244v12h12v-12h-12ZM460,256v12h12v-12h-12ZM436,256v12h12v-12h-12ZM412,256v12h12v-12h-12ZM352,256v72h12v-72h-12ZM280,256v12h12v-12h-12ZM208,256v24h12v-24h-12ZM172,256v12h12v-12h-12ZM160,256v60h12v-60h-12ZM88,256v12h12v-12h-12ZM40,256v48h12v-48h-12ZM424,268v12h12v-12h-12ZM388,268v24h12v-24h-12ZM364,268v12h12v-12h-12ZM340,268v12h12v-12h-12ZM316,268v12h12v-12h-12ZM304,268v24h12v-24h-12ZM268,268v12h12v-12h-12ZM256,268v24h12v-24h-12ZM232,268v12h12v-12h-12ZM136,268v12h12v-12h-12ZM112,268v36h12v-36h-12ZM100,268v12h12v-12h-12ZM64,268v12h12v-12h-12ZM52,268v36h12v-36h-12ZM412,280v12h12v-12h-12ZM376,280v12h12v-12h-12ZM280,280v12h12v-12h-12ZM220,280v84h12v-84h-12ZM148,280v12h12v-12h-12ZM28,280v24h12v-24h-12ZM436,292v12h12v-12h-12ZM424,292v12h12v-12h-12ZM364,292v12h12v-12h-12ZM340,292v12h12v-12h-12ZM316,292v12h12v-12h-12ZM196,292v12h12v-12h-12ZM172,292v12h12v-12h-12ZM136,292v24h12v-24h-12ZM124,292v12h12v-12h-12ZM100,292v12h12v-12h-12ZM88,292v12h12v-12h-12ZM76,292v24h12v-24h-12ZM64,292v12h12v-12h-12ZM460,304v48h12v-48h-12ZM448,304v12h12v-12h-12ZM412,304v120h12v-120h-12ZM376,304v12h12v-12h-12ZM328,304v12h12v-12h-12ZM280,304v12h12v-12h-12ZM268,304v12h12v-12h-12ZM256,304v12h12v-12h-12ZM244,304v24h12v-24h-12ZM208,304v12h12v-12h-12ZM184,304v12h12v-12h-12ZM424,316v12h12v-12h-12ZM400,316v12h12v-12h-12ZM364,316v108h12v-108h-12ZM340,316v12h12v-12h-12ZM316,316v24h12v-24h-12ZM304,316v12h12v-12h-12ZM196,316v12h12v-12h-12ZM148,316v48h12v-48h-12ZM124,316v36h12v-36h-12ZM100,316v12h12v-12h-12ZM88,316v12h12v-12h-12ZM64,316v36h12v-36h-12ZM52,316v12h12v-12h-12ZM28,316v12h12v-12h-12ZM328,328v12h12v-12h-12ZM292,328v36h12v-36h-12ZM280,328v24h12v-24h-12ZM268,328v24h12v-24h-12ZM232,328v12h12v-12h-12ZM172,328v24h12v-24h-12ZM136,328v12h12v-12h-12ZM76,328v12h12v-12h-12ZM448,340v36h12v-36h-12ZM436,340v12h12v-12h-12ZM424,340v12h12v-12h-12ZM400,340v12h12v-12h-12ZM388,340v12h12v-12h-12ZM340,340v24h12v-24h-12ZM304,340v12h12v-12h-12ZM244,340v48h12v-48h-12ZM160,340v12h12v-12h-12ZM112,340v12h12v-12h-12ZM100,340v12h12v-12h-12ZM52,340v36h12v-36h-12ZM28,340v12h12v-12h-12ZM196,352v12h12v-12h-12ZM88,352v24h12v-24h-12ZM40,352v24h12v-24h-12ZM400,364v12h12v-12h-12ZM388,364v12h12v-12h-12ZM376,364v12h12v-12h-12ZM208,364v24h12v-24h-12ZM184,364v24h12v-24h-12ZM160,364v12h12v-12h-12ZM136,364v24h12v-24h-12ZM112,364v12h12v-12h-12ZM100,364v12h12v-12h-12ZM28,364v12h12v-12h-12ZM436,376v12h12v-12h-12ZM352,376v12h12v-12h-12ZM316,376v24h12v-24h-12ZM304,376v36h12v-36h-12ZM292,376v24h12v-24h-12ZM268,376v48h12v-48h-12ZM256,376v36h12v-36h-12ZM232,376v12h12v-12h-12ZM220,376v24h12v-24h-12ZM196,376v12h12v-12h-12ZM172,376v24h12v-24h-12ZM448,388v36h12v-36h-12ZM424,388v12h12v-12h-12ZM388,388v12h12v-12h-12ZM340,388v12h12v-12h-12ZM160,388v12h12v-12h-12ZM148,388v12h12v-12h-12ZM58,388c-16.57,0-30,13.43-30,30h0v24c0,16.57,13.43,30,30,30h24c16.57,0,30-13.43,30-30h0v-24c0-16.57-13.43-30-30-30h-24ZM40,442v-24c0-9.94,8.06-18,18-18h24c9.94,0,18,8.06,18,18h0v24c0,9.94-8.06,18-18,18h-24c-9.94,0-18-8.06-18-18ZM436,400v12h12v-12h-12ZM352,400v12h12v-12h-12ZM328,400v12h12v-12h-12ZM280,400v12h12v-12h-12ZM244,400v24h12v-24h-12ZM232,400v12h12v-12h-12ZM208,400v12h12v-12h-12ZM196,400v12h12v-12h-12ZM136,400v12h12v-12h-12ZM124,400v24h12v-24h-12ZM424,412v12h12v-12h-12ZM400,412v12h12v-12h-12ZM388,412v24h12v-24h-12ZM376,412v12h12v-12h-12ZM316,412v48h12v-48h-12ZM220,412v12h12v-12h-12ZM172,412v36h12v-36h-12ZM160,412v12h12v-12h-12ZM52,412v36h36v-36h-36ZM436,424v12h12v-12h-12ZM328,424v24h12v-24h-12ZM292,424v48h12v-48h-12ZM196,424v12h12v-12h-12ZM184,424v24h12v-24h-12ZM460,436v36h12v-36h-12ZM412,436v24h12v-24h-12ZM364,436v24h12v-24h-12ZM280,436v12h12v-12h-12ZM268,436v36h12v-36h-12ZM220,436v24h12v-24h-12ZM148,436v36h12v-36h-12ZM424,448v12h12v-12h-12ZM400,448v24h12v-24h-12ZM388,448v24h12v-24h-12ZM352,448v24h12v-24h-12ZM340,448v24h12v-24h-12ZM256,448v12h12v-12h-12ZM244,448v24h12v-24h-12ZM196,448v24h12v-24h-12ZM160,448v24h12v-24h-12ZM448,460v12h12v-12h-12ZM436,460v12h12v-12h-12ZM172,460v12h12v-12h-12ZM124,460v12h12v-12h-12Z"/>
</svg>